<svg width="30" height="30" viewBox="0 0 30 30" fill="white" xmlns="http://www.w3.org/2000/svg">
<g id="History" clip-path="url(#clip0_44_286)">
<g id="History">
<g id="History">
<g id="History">
<path id="&#229;&#189;&#162;&#231;&#138;&#182;" d="M4.17494 8.75025C7.62672 2.7716 15.2716 0.723159 21.2502 4.17494C25.7374 6.76561 28.0084 11.7166 27.4067 16.5496C27.3405 17.0828 27.2391 17.6145 27.102 18.1415C26.8315 19.1814 25.5749 19.4834 24.8427 18.8052L24.737 18.6961L21.9229 15.462C21.0668 14.4783 21.9324 12.9978 23.1686 13.1996L23.3074 13.229L24.909 13.647C24.503 10.6899 22.7831 7.94668 20.0002 6.34C15.2174 3.57858 9.10142 5.21733 6.34 10.0003C3.57857 14.7831 5.21732 20.8991 10.0002 23.6605C14.1204 26.0392 19.2326 25.1531 22.3342 21.8019C22.8031 21.2952 23.594 21.2646 24.1006 21.7335C24.6074 22.2025 24.6379 22.9934 24.169 23.5C20.2916 27.6894 13.9035 28.8007 8.75025 25.8256C2.7716 22.3737 0.72316 14.7289 4.17494 8.75025ZM15 7.49999C15.6411 7.49999 16.1694 7.98253 16.2416 8.60421L16.25 8.74999V14.4823L19.6339 17.8661C20.122 18.3542 20.122 19.1458 19.6339 19.6339C19.1833 20.0845 18.4742 20.1191 17.9839 19.7379L17.8661 19.6339L14.1161 15.8839C13.9207 15.6886 13.7967 15.4352 13.7608 15.1643L13.75 15V8.74999C13.75 8.05963 14.3096 7.49999 15 7.49999Z"/>
</g>
</g>
</g>
</g>
<defs>
<clipPath id="History">
<rect width="30" height="30"/>
</clipPath>
</defs>
</svg>
