<svg width="30" height="30" viewBox="0 0 30 30" fill="none" xmlns="http://www.w3.org/2000/svg">
<g id="settings_svgrepo.com">
<path id="Vector" d="M15 18.75C17.0711 18.75 18.75 17.0711 18.75 15C18.75 12.9289 17.0711 11.25 15 11.25C12.9289 11.25 11.25 12.9289 11.25 15C11.25 17.0711 12.9289 18.75 15 18.75Z" stroke="white" stroke-width="2.5"/>
<path id="Vector_2" d="M17.2067 2.6903C16.7472 2.5 16.1649 2.5 15 2.5C13.8351 2.5 13.2527 2.5 12.7932 2.6903C12.1807 2.94404 11.694 3.43073 11.4403 4.04329C11.3245 4.32293 11.2791 4.64813 11.2614 5.12249C11.2353 5.8196 10.8778 6.46486 10.2737 6.81366C9.66955 7.16245 8.93198 7.14942 8.31523 6.82345C7.89556 6.60162 7.59126 6.47828 7.29117 6.43878C6.6338 6.35223 5.96897 6.53036 5.44295 6.934C5.04842 7.23673 4.75721 7.74112 4.17478 8.74991C3.59236 9.75871 3.30115 10.2631 3.23623 10.7561C3.1497 11.4135 3.32783 12.0783 3.73147 12.6044C3.9157 12.8445 4.17462 13.0462 4.57648 13.2987C5.16725 13.67 5.54736 14.3024 5.54732 15C5.54728 15.6976 5.16718 16.3299 4.57647 16.701C4.17456 16.9536 3.9156 17.1555 3.73135 17.3956C3.32771 17.9216 3.14957 18.5864 3.23612 19.2438C3.30102 19.7368 3.59223 20.2413 4.17466 21.25C4.7571 22.2587 5.04831 22.7632 5.44282 23.0659C5.96885 23.4695 6.63367 23.6476 7.29105 23.5611C7.59111 23.5216 7.8954 23.3983 8.31505 23.1765C8.93183 22.8505 9.66945 22.8375 10.2736 23.1862C10.8778 23.5351 11.2353 24.1804 11.2614 24.8776C11.2791 25.3519 11.3245 25.6771 11.4403 25.9567C11.694 26.5692 12.1807 27.056 12.7932 27.3097C13.2527 27.5 13.8351 27.5 15 27.5C16.1649 27.5 16.7472 27.5 17.2067 27.3097C17.8192 27.056 18.306 26.5692 18.5596 25.9567C18.6755 25.6771 18.7209 25.3519 18.7386 24.8775C18.7646 24.1804 19.1221 23.5351 19.7262 23.1862C20.3304 22.8374 21.068 22.8505 21.6849 23.1765C22.1045 23.3983 22.4087 23.5215 22.7087 23.561C23.3661 23.6476 24.031 23.4695 24.557 23.0659C24.9515 22.7631 25.2427 22.2588 25.8251 21.2499C26.4076 20.2411 26.6989 19.7368 26.7637 19.2438C26.8502 18.5864 26.6721 17.9215 26.2685 17.3955C26.0842 17.1554 25.8252 16.9535 25.4234 16.701C24.8327 16.3299 24.4526 15.6975 24.4526 14.9999C24.4526 14.3022 24.8327 13.6701 25.4234 13.299C25.8254 13.0464 26.0844 12.8446 26.2686 12.6044C26.6722 12.0784 26.8504 11.4136 26.7639 10.7562C26.699 10.2632 26.4077 9.75879 25.8252 8.75C25.2429 7.74121 24.9516 7.23681 24.5571 6.93409C24.0311 6.53045 23.3662 6.35231 22.7089 6.43886C22.4089 6.47836 22.1046 6.6017 21.6849 6.8235C21.0681 7.14949 20.3305 7.16253 19.7264 6.8137C19.1221 6.46489 18.7646 5.81957 18.7386 5.12242C18.7209 4.6481 18.6755 4.32291 18.5596 4.04329C18.306 3.43073 17.8192 2.94404 17.2067 2.6903Z" stroke="white" stroke-width="2.5"/>
</g>
</svg>
