<svg width="35" height="35" viewBox="0 0 35 35" xmlns="http://www.w3.org/2000/svg">
<g id="search">
<mask id="mask0_35_17" style="mask-type:alpha" maskUnits="userSpaceOnUse" x="0" y="0" width="48" height="48">
<rect id="Bounding box" width="48" height="48" fill="#D9D9D9"/>
</mask>
<g mask="url(#mask0_35_17)">
<path id="search_2" d="M28.9844 31.6094L19.1771 21.8385C18.4722 22.3957 17.6402 22.8327 16.6812 23.1497C15.7221 23.4666 14.6825 23.625 13.5625 23.625C10.7634 23.625 8.39263 22.6528 6.45015 20.7083C4.50768 18.7639 3.53644 16.4184 3.53644 13.6719C3.53644 10.9253 4.50866 8.57986 6.4531 6.63542C8.39755 4.69097 10.7491 3.71875 13.5078 3.71875C16.2665 3.71875 18.612 4.69097 20.5443 6.63542C22.4765 8.57986 23.4427 10.9272 23.4427 13.6773C23.4427 14.7674 23.2908 15.7804 22.987 16.7161C22.6831 17.6519 22.2274 18.533 21.6198 19.3594L31.4635 29.1302L28.9844 31.6094ZM13.5389 20.1979C15.3593 20.1979 16.8939 19.5629 18.1426 18.293C19.3913 17.023 20.0156 15.4826 20.0156 13.6719C20.0156 11.8611 19.3895 10.3207 18.1372 9.05078C16.8849 7.78082 15.3522 7.14583 13.5389 7.14583C11.7054 7.14583 10.1511 7.78082 8.87605 9.05078C7.60103 10.3207 6.96352 11.8611 6.96352 13.6719C6.96352 15.4826 7.59925 17.023 8.87069 18.293C10.1422 19.5629 11.6982 20.1979 13.5389 20.1979Z"/>
</g>
</g>
</svg>
