<svg width="30" height="30" viewBox="0 0 30 30" xmlns="http://www.w3.org/2000/svg">
<g id="user_svgrepo.com">
<path id="Vector" d="M20.25 17.8125C18.5684 17.8125 17.7598 18.75 15 18.75C12.2402 18.75 11.4375 17.8125 9.75 17.8125C5.40234 17.8125 1.875 21.3398 1.875 25.6875V27.1875C1.875 28.7402 3.13477 30 4.6875 30H25.3125C26.8652 30 28.125 28.7402 28.125 27.1875V25.6875C28.125 21.3398 24.5977 17.8125 20.25 17.8125ZM25.3125 27.1875H4.6875V25.6875C4.6875 22.8984 6.96094 20.625 9.75 20.625C10.6055 20.625 11.9941 21.5625 15 21.5625C18.0293 21.5625 19.3887 20.625 20.25 20.625C23.0391 20.625 25.3125 22.8984 25.3125 25.6875V27.1875ZM15 16.875C19.6582 16.875 23.4375 13.0957 23.4375 8.4375C23.4375 3.7793 19.6582 0 15 0C10.3418 0 6.5625 3.7793 6.5625 8.4375C6.5625 13.0957 10.3418 16.875 15 16.875ZM15 2.8125C18.0996 2.8125 20.625 5.33789 20.625 8.4375C20.625 11.5371 18.0996 14.0625 15 14.0625C11.9004 14.0625 9.375 11.5371 9.375 8.4375C9.375 5.33789 11.9004 2.8125 15 2.8125Z"/>
</g>
</svg>
