<svg width="40" height="40" viewBox="0 0 40 40" xmlns="http://www.w3.org/2000/svg">
<g id="Music icon" clip-path="url(#clip0_50_744)">
<path id="Vector" d="M19.156 35.1876C19.0119 37.937 15.7774 40.0004 11.9358 39.7991C8.09428 39.5978 5.0932 37.2075 5.23728 34.4582C5.38137 31.7088 8.61587 29.6453 12.4574 29.8467C16.299 30.048 19.3001 32.4382 19.156 35.1876Z"/>
<path id="Vector_2" fill-rule="evenodd" clip-rule="evenodd" d="M22.5085 6.83684L19.0998 34.5982L15.1296 34.1107L18.5383 6.34937L22.5085 6.83684Z" />
<path id="Vector_3" d="M18.9285 3.22793C19.0034 2.62108 19.3107 2.06191 19.7982 1.64549C20.2856 1.22907 20.9231 0.9811 21.6022 0.943744L30.5933 0.448231C31.0279 0.424324 31.4656 0.487506 31.8749 0.633225C32.2841 0.778944 32.6547 1.00357 32.9599 1.29092C33.2652 1.57828 33.4975 1.9212 33.6401 2.29499C33.7827 2.66878 33.832 3.06413 33.7846 3.45255L33.2106 8.12719L18.2255 8.95305L18.9285 3.22793Z" />
</g>
<defs>
<clipPath id="clip0_50_744">
<rect width="40" height="40" />
</clipPath>
</defs>
</svg>
