<svg width="30" height="30" viewBox="0 0 30 30" fill="white" xmlns="http://www.w3.org/2000/svg">
<g id="PLaylits" clip-path="url(#clip0_44_276)">
<g id="PLaylits">
<path id="PLaylits" d="M2.5 22.5H15V25H2.5V22.5ZM2.5 13.75H20V16.25H2.5V13.75ZM2.5 5H27.5V7.5H2.5V5ZM23.75 18.9625V11.25H30V13.75H26.25V22.5C26.2496 23.296 25.9959 24.0711 25.5257 24.7133C25.0555 25.3556 24.3931 25.8315 23.6345 26.0723C22.8758 26.3131 22.0602 26.3063 21.3057 26.0528C20.5512 25.7993 19.8969 25.3123 19.4376 24.6623C18.9782 24.0123 18.7376 23.233 18.7505 22.4371C18.7634 21.6413 19.0292 20.8702 19.5095 20.2354C19.9897 19.6007 20.6595 19.1352 21.4218 18.9064C22.1842 18.6775 22.9996 18.6972 23.75 18.9625ZM22.5 23.75C22.8315 23.75 23.1495 23.6183 23.3839 23.3839C23.6183 23.1495 23.75 22.8315 23.75 22.5C23.75 22.1685 23.6183 21.8505 23.3839 21.6161C23.1495 21.3817 22.8315 21.25 22.5 21.25C22.1685 21.25 21.8505 21.3817 21.6161 21.6161C21.3817 21.8505 21.25 22.1685 21.25 22.5C21.25 22.8315 21.3817 23.1495 21.6161 23.3839C21.8505 23.6183 22.1685 23.75 22.5 23.75Z"/>
</g>
</g>
<defs>
<clipPath id="PLaylits">
<rect width="30" height="30" fill="none"/>
</clipPath>
</defs>
</svg>
