<svg width="30" height="30" viewBox="0 0 30 30" fill="white" xmlns="http://www.w3.org/2000/svg">
<g id="Tracks">
<path id="Vector" d="M28.9891 2.05434C28.9891 1.66304 28.8261 1.27173 28.5 1.04347C28.2065 0.782603 27.8152 0.684777 27.4239 0.782603L10.9891 4.10869C10.3696 4.23912 9.94566 4.76086 9.94566 5.38043V20.3478C9.03262 19.8261 7.92392 19.5326 6.75001 19.5326C5.25001 19.5326 3.84784 19.9891 2.73914 20.9022C1.59784 21.8804 0.978271 23.0543 0.978271 24.4565C0.978271 27.2283 3.58697 29.3478 6.75001 29.3478C8.25001 29.3478 9.58697 28.9565 10.6631 28.0761C11.8044 27.1304 12.3587 25.8913 12.3587 24.5217V24.5543L12.4565 11.7717L26.3152 8.96739V16.7283C25.4348 16.2065 24.3913 15.9783 23.2174 15.9783C21.7174 15.9783 20.3152 16.4022 19.2065 17.2826C18.0652 18.2283 17.4131 19.4348 17.4131 20.837C17.4131 23.6087 20.0217 25.7609 23.1848 25.7609C26.2174 25.7609 28.7283 23.7717 28.9565 21.163C28.9565 21.1304 28.9565 21 28.9565 20.6413L28.9891 2.05434ZM9.09784 26.0543C8.47827 26.5761 7.66305 26.7391 6.75001 26.7391C5.02175 26.7391 3.58697 25.7609 3.58697 24.4565C3.58697 23.8696 3.88045 23.3478 4.43479 22.9239C5.05436 22.4022 5.86958 22.2065 6.78262 22.2065C8.51088 22.2065 9.97827 23.25 9.97827 24.5543C9.94566 25.1087 9.65218 25.5978 9.09784 26.0543ZM12.5544 9.42391V6.45652L26.3804 3.61956V6.58695L12.5544 9.42391ZM23.2174 23.1522C21.4891 23.1522 20.0218 22.1087 20.0218 20.8043C20.0218 20.2174 20.3152 19.7283 20.8696 19.2717C21.4891 18.75 22.3044 18.587 23.2174 18.587C24.8478 18.587 26.4131 19.4348 26.4131 20.6739V21.0326C26.087 22.2717 24.8478 23.1522 23.2174 23.1522Z"/>
</g>
</svg>
